<svg width="48" height="48" viewBox="0 0 48 48" fill="none" xmlns="http://www.w3.org/2000/svg">
<path d="M18 26C16.68 26.66 15.58 27.64 14.76 28.86C14.3 29.56 14.3 30.44 14.76 31.14C15.58 32.36 16.68 33.34 18 34" stroke="#776EF6" stroke-width="2" stroke-linecap="round" stroke-linejoin="round"/>
<path d="M30.42 26C31.74 26.66 32.84 27.64 33.66 28.86C34.12 29.56 34.12 30.44 33.66 31.14C32.84 32.36 31.74 33.34 30.42 34" stroke="#776EF6" stroke-width="2" stroke-linecap="round" stroke-linejoin="round"/>
<path d="M18 44H30C40 44 44 40 44 30V18C44 8 40 4 30 4H18C8 4 4 8 4 18V30C4 40 8 44 18 44Z" stroke="#776EF6" stroke-width="2" stroke-linecap="round" stroke-linejoin="round"/>
<path d="M4.45999 16.02L42.9 16" stroke="#776EF6" stroke-width="2" stroke-linecap="round" stroke-linejoin="round"/>
</svg>
