<svg width="24" height="22" viewBox="0 0 24 22" fill="none" xmlns="http://www.w3.org/2000/svg">
<path d="M19.5 2.75C19.5 2.15326 19.7371 1.58097 20.159 1.15901C20.581 0.737053 21.1533 0.5 21.75 0.5C22.3467 0.5 22.919 0.737053 23.341 1.15901C23.7629 1.58097 24 2.15326 24 2.75V19.25C24 19.8467 23.7629 20.419 23.341 20.841C22.919 21.2629 22.3467 21.5 21.75 21.5C21.1533 21.5 20.581 21.2629 20.159 20.841C19.7371 20.419 19.5 19.8467 19.5 19.25V2.75ZM18 3.836C14.8995 5.261 11.1915 6.0575 7.5 6.32V15.6755C8.04486 15.7062 8.58898 15.7487 9.132 15.803C12.2115 16.109 15.189 16.805 18 18.143V3.836ZM6 15.5975V6.401C4.98 6.4415 3.9015 6.4655 2.988 6.4805C2.19351 6.49151 1.43513 6.81416 0.876245 7.37894C0.317355 7.94372 0.00267717 8.70544 0 9.5L0 12.5C0 14.159 1.344 15.494 2.991 15.5135C3.23901 15.5166 3.48702 15.5206 3.735 15.5255C4.49026 15.5406 5.24531 15.5646 6 15.5975V15.5975ZM8.085 17.219C8.5125 17.2505 8.9385 17.2895 9.36 17.336L9.7395 19.871C9.7808 20.0879 9.77368 20.3113 9.71867 20.5252C9.66365 20.7391 9.56209 20.9381 9.42124 21.1082C9.28039 21.2783 9.10372 21.4152 8.90385 21.5091C8.70398 21.603 8.48583 21.6516 8.265 21.6515H7.443C7.15143 21.6515 6.86619 21.5665 6.62217 21.4069C6.37815 21.2473 6.18592 21.0201 6.069 20.753L4.098 17.033C4.94438 17.0541 5.79045 17.0861 6.636 17.129C7.1265 17.1545 7.611 17.1845 8.085 17.219V17.219Z" fill="#4B26B1"/>
</svg>
