<svg width="48" height="42" viewBox="0 0 48 42" fill="none" xmlns="http://www.w3.org/2000/svg">
<path d="M42.5 15.189V15.9644L43.251 16.1575C44.3254 16.4337 45.2774 17.0595 45.9572 17.9361C46.637 18.8128 47.0059 19.8906 47.0059 21C47.0059 22.1094 46.637 23.1872 45.9572 24.0639C45.2774 24.9405 44.3254 25.5663 43.251 25.8425L42.5 26.0356V26.811V37.5C42.5 38.4283 42.1312 39.3185 41.4749 39.9749C40.8185 40.6313 39.9283 41 39 41H9C8.07174 41 7.1815 40.6313 6.52512 39.9749C5.86875 39.3185 5.5 38.4283 5.5 37.5V26.811V26.0356L4.74901 25.8425C3.67461 25.5663 2.72258 24.9405 2.04279 24.0639C1.36301 23.1872 0.99408 22.1094 0.99408 21C0.99408 19.8906 1.36301 18.8128 2.04279 17.9361C2.72257 17.0595 3.6746 16.4337 4.74901 16.1575L5.5 15.9644V15.189V4.5C5.5 3.57174 5.86875 2.6815 6.52512 2.02513C7.1815 1.36875 8.07174 1 9 1H39C39.9283 1 40.8185 1.36875 41.4749 2.02513C42.1312 2.6815 42.5 3.57174 42.5 4.5V15.189ZM6.5 15.189V15.9644L7.25098 16.1575C8.32539 16.4337 9.27742 17.0595 9.9572 17.9361C10.637 18.8128 11.0059 19.8906 11.0059 21C11.0059 22.1094 10.637 23.1872 9.9572 24.0639C9.27742 24.9405 8.32539 25.5663 7.25098 25.8425L6.5 26.0356V26.811V37.5C6.5 38.163 6.76339 38.7989 7.23223 39.2678C7.70107 39.7366 8.33696 40 9 40H39C39.663 40 40.2989 39.7366 40.7678 39.2678C41.2366 38.7989 41.5 38.163 41.5 37.5V26.811V26.0356L40.749 25.8425C39.6746 25.5663 38.7226 24.9405 38.0428 24.0639C37.363 23.1872 36.9941 22.1094 36.9941 21C36.9941 19.8906 37.363 18.8128 38.0428 17.9361C38.7226 17.0595 39.6746 16.4337 40.749 16.1575L41.5 15.9644V15.189V4.5C41.5 3.83696 41.2366 3.20108 40.7678 2.73223C40.2989 2.26339 39.663 2 39 2H9C8.33696 2 7.70107 2.26339 7.23223 2.73223C6.76339 3.20107 6.5 3.83696 6.5 4.5V15.189ZM33.3963 11.8668C33.0846 11.3407 32.6823 10.899 32.1498 10.5496C31.7916 10.3146 31.3969 10.1368 30.9693 10H33.3346L33.3963 11.8668ZM25.7058 31.9277C25.7393 31.9527 25.7734 31.9768 25.8082 32H22.1774C22.2133 31.976 22.2485 31.951 22.2831 31.925C23.1488 31.2741 23.206 30.2899 23.206 29.493V10.464V10H24.779V10.464V29.493C24.779 30.291 24.836 31.2772 25.7058 31.9277ZM17.0319 10C16.6034 10.1367 16.208 10.3146 15.8492 10.55C15.3171 10.8989 14.9151 11.3403 14.6037 11.8659L14.6654 10H17.0319ZM6 17C4.93913 17 3.92172 17.4214 3.17157 18.1716C2.42143 18.9217 2 19.9391 2 21C2 22.0609 2.42143 23.0783 3.17157 23.8284C3.92172 24.5786 4.93913 25 6 25C7.06087 25 8.07828 24.5786 8.82843 23.8284C9.57857 23.0783 10 22.0609 10 21C10 19.9391 9.57857 18.9217 8.82843 18.1716C8.07828 17.4214 7.06087 17 6 17ZM42 17C40.9391 17 39.9217 17.4214 39.1716 18.1716C38.4214 18.9217 38 19.9391 38 21C38 22.0609 38.4214 23.0783 39.1716 23.8284C39.9217 24.5786 40.9391 25 42 25C43.0609 25 44.0783 24.5786 44.8284 23.8284C45.5786 23.0783 46 22.0609 46 21C46 19.9391 45.5786 18.9217 44.8284 18.1716C44.0783 17.4214 43.0609 17 42 17Z" fill="#212529" stroke="#776EF6" stroke-width="2"/>
</svg>
