<svg width="48" height="48" viewBox="0 0 48 48" fill="none" xmlns="http://www.w3.org/2000/svg">
<path d="M43.36 33.92L37.1 19.3C34.98 14.34 31.08 14.14 28.46 18.86L24.68 25.68C22.76 29.14 19.18 29.44 16.7 26.34L16.26 25.78C13.68 22.54 10.04 22.94 8.18 26.64L4.74 33.54C2.32 38.34 5.82 44 11.18 44H36.7C41.9 44 45.4 38.7 43.36 33.92Z" stroke="#776EF6" stroke-width="2" stroke-linecap="round" stroke-linejoin="round"/>
<path d="M13.94 16C17.2537 16 19.94 13.3137 19.94 10C19.94 6.68629 17.2537 4 13.94 4C10.6263 4 7.94 6.68629 7.94 10C7.94 13.3137 10.6263 16 13.94 16Z" stroke="#776EF6" stroke-width="2" stroke-linecap="round" stroke-linejoin="round"/>
</svg>
