<svg width="49" height="48" viewBox="0 0 49 48" fill="none" xmlns="http://www.w3.org/2000/svg">
<g clip-path="url(#clip0_2904_5534)">
<path d="M15.4398 11.9992C15.215 11.9995 14.9931 12.0504 14.7906 12.148C14.5881 12.2456 14.4101 12.3875 14.2698 12.5632L5.11983 23.9992H18.4998C18.8977 23.9992 19.2792 24.1572 19.5605 24.4385C19.8418 24.7198 19.9998 25.1014 19.9998 25.4992C19.9998 26.6927 20.4739 27.8373 21.3179 28.6812C22.1618 29.5251 23.3064 29.9992 24.4998 29.9992C25.6933 29.9992 26.8379 29.5251 27.6818 28.6812C28.5257 27.8373 28.9998 26.6927 28.9998 25.4992C28.9998 25.1014 29.1579 24.7198 29.4392 24.4385C29.7205 24.1572 30.102 23.9992 30.4998 23.9992H43.8798L34.7298 12.5632C34.5895 12.3875 34.4116 12.2456 34.209 12.148C34.0065 12.0504 33.7847 11.9995 33.5598 11.9992H15.4398ZM45.3018 26.9992H31.8498C31.5056 28.6946 30.5857 30.2189 29.2462 31.3138C27.9067 32.4086 26.2299 33.0067 24.4998 33.0067C22.7698 33.0067 21.093 32.4086 19.7534 31.3138C18.4139 30.2189 17.4941 28.6946 17.1498 26.9992H3.69783L4.65783 34.6852C4.70323 35.0484 4.87987 35.3825 5.1545 35.6246C5.42913 35.8666 5.78278 35.9998 6.14883 35.9992H42.8508C43.2164 35.9991 43.5693 35.8655 43.8433 35.6236C44.1173 35.3816 44.2935 35.0479 44.3388 34.6852L45.2988 26.9992H45.3018ZM11.9268 10.6882C12.3486 10.1609 12.8837 9.73533 13.4923 9.44295C14.101 9.15057 14.7676 8.99891 15.4428 8.99921H33.5568C34.2321 8.99891 34.8987 9.15057 35.5074 9.44295C36.116 9.73533 36.651 10.1609 37.0728 10.6882L48.1728 24.5632C48.2975 24.7198 48.3897 24.8997 48.4438 25.0924C48.4978 25.2851 48.5128 25.4866 48.4878 25.6852L47.3178 35.0572C47.1818 36.1459 46.6527 37.1473 45.8301 37.8733C45.0075 38.5992 43.948 38.9996 42.8508 38.9992H6.14883C5.0517 38.9996 3.99221 38.5992 3.16958 37.8733C2.34696 37.1473 1.81788 36.1459 1.68183 35.0572L0.511835 25.6852C0.487246 25.4864 0.502716 25.2847 0.557332 25.092C0.611948 24.8993 0.704604 24.7195 0.829835 24.5632L11.9298 10.6882H11.9268Z" fill="#4B26B1"/>
</g>
<defs>
<clipPath id="clip0_2904_5534">
<rect width="48" height="48" fill="white" transform="translate(0.5)"/>
</clipPath>
</defs>
</svg>
