<svg width="26" height="26" viewBox="0 0 26 26" fill="none" xmlns="http://www.w3.org/2000/svg">
<rect width="26" height="26" rx="4" fill="#F6F7F9"/>
<path d="M12.4002 20.1666H9.60016C6.9935 20.1666 5.8335 19.0066 5.8335 16.4V13.6C5.8335 10.9933 6.9935 9.83331 9.60016 9.83331H12.4002C15.0068 9.83331 16.1668 10.9933 16.1668 13.6V16.4C16.1668 19.0066 15.0068 20.1666 12.4002 20.1666ZM9.60016 10.8333C7.5335 10.8333 6.8335 11.5333 6.8335 13.6V16.4C6.8335 18.4666 7.5335 19.1666 9.60016 19.1666H12.4002C14.4668 19.1666 15.1668 18.4666 15.1668 16.4V13.6C15.1668 11.5333 14.4668 10.8333 12.4002 10.8333H9.60016V10.8333Z" fill="#6C757D"/>
<path d="M16.4002 16.1666H15.6668C15.3935 16.1666 15.1668 15.94 15.1668 15.6666V13.6C15.1668 11.5333 14.4668 10.8333 12.4002 10.8333H10.3335C10.0602 10.8333 9.8335 10.6066 9.8335 10.3333V9.59998C9.8335 6.99331 10.9935 5.83331 13.6002 5.83331H16.4002C19.0068 5.83331 20.1668 6.99331 20.1668 9.59998V12.4C20.1668 15.0066 19.0068 16.1666 16.4002 16.1666ZM16.1668 15.1666H16.4002C18.4668 15.1666 19.1668 14.4666 19.1668 12.4V9.59998C19.1668 7.53331 18.4668 6.83331 16.4002 6.83331H13.6002C11.5335 6.83331 10.8335 7.53331 10.8335 9.59998V9.83331H12.4002C15.0068 9.83331 16.1668 10.9933 16.1668 13.6V15.1666Z" fill="#292D32"/>
</svg>
