<svg width="60" height="60" viewBox="0 0 60 60" fill="none" xmlns="http://www.w3.org/2000/svg">
<circle cx="30" cy="30" r="30" fill="white"/>
<path d="M37.5 21.75C37.5 21.1533 37.7371 20.581 38.159 20.159C38.581 19.7371 39.1533 19.5 39.75 19.5C40.3467 19.5 40.919 19.7371 41.341 20.159C41.7629 20.581 42 21.1533 42 21.75V38.25C42 38.8467 41.7629 39.419 41.341 39.841C40.919 40.2629 40.3467 40.5 39.75 40.5C39.1533 40.5 38.581 40.2629 38.159 39.841C37.7371 39.419 37.5 38.8467 37.5 38.25V21.75ZM36 22.836C32.8995 24.261 29.1915 25.0575 25.5 25.32V34.6755C26.0449 34.7062 26.589 34.7487 27.132 34.803C30.2115 35.109 33.189 35.805 36 37.143V22.836ZM24 34.5975V25.401C22.98 25.4415 21.9015 25.4655 20.988 25.4805C20.1935 25.4915 19.4351 25.8142 18.8762 26.3789C18.3174 26.9437 18.0027 27.7054 18 28.5V31.5C18 33.159 19.344 34.494 20.991 34.5135C21.239 34.5166 21.487 34.5206 21.735 34.5255C22.4903 34.5406 23.2453 34.5646 24 34.5975ZM26.085 36.219C26.5125 36.2505 26.9385 36.2895 27.36 36.336L27.7395 38.871C27.7808 39.0879 27.7737 39.3113 27.7187 39.5252C27.6637 39.7391 27.5621 39.9381 27.4212 40.1082C27.2804 40.2783 27.1037 40.4152 26.9038 40.5091C26.704 40.603 26.4858 40.6516 26.265 40.6515H25.443C25.1514 40.6515 24.8662 40.5665 24.6222 40.4069C24.3781 40.2473 24.1859 40.0201 24.069 39.753L22.098 36.033C22.9444 36.0541 23.7904 36.0861 24.636 36.129C25.1265 36.1545 25.611 36.1845 26.085 36.219Z" fill="#4B26B1"/>
</svg>
