<svg width="12" height="7" viewBox="0 0 12 7" fill="none" xmlns="http://www.w3.org/2000/svg">
<path d="M4 6.49921C4 6.3666 4.05268 6.23942 4.14645 6.14565C4.24021 6.05188 4.36739 5.99921 4.5 5.99921H7.5C7.63261 5.99921 7.75979 6.05188 7.85355 6.14565C7.94732 6.23942 8 6.3666 8 6.49921C8 6.63181 7.94732 6.75899 7.85355 6.85276C7.75979 6.94653 7.63261 6.99921 7.5 6.99921H4.5C4.36739 6.99921 4.24021 6.94653 4.14645 6.85276C4.05268 6.75899 4 6.63181 4 6.49921ZM2 3.49921C2 3.3666 2.05268 3.23942 2.14645 3.14565C2.24021 3.05189 2.36739 2.99921 2.5 2.99921H9.5C9.63261 2.99921 9.75979 3.05189 9.85355 3.14565C9.94732 3.23942 10 3.3666 10 3.49921C10 3.63181 9.94732 3.75899 9.85355 3.85276C9.75979 3.94653 9.63261 3.99921 9.5 3.99921H2.5C2.36739 3.99921 2.24021 3.94653 2.14645 3.85276C2.05268 3.75899 2 3.63181 2 3.49921ZM0 0.499207C0 0.366598 0.0526785 0.239421 0.146447 0.145653C0.240215 0.0518851 0.367392 -0.000793457 0.5 -0.000793457H11.5C11.6326 -0.000793457 11.7598 0.0518851 11.8536 0.145653C11.9473 0.239421 12 0.366598 12 0.499207C12 0.631815 11.9473 0.758992 11.8536 0.85276C11.7598 0.946528 11.6326 0.999207 11.5 0.999207H0.5C0.367392 0.999207 0.240215 0.946528 0.146447 0.85276C0.0526785 0.758992 0 0.631815 0 0.499207Z" fill="white"/>
</svg>
