<svg width="26" height="26" viewBox="0 0 26 26" fill="none" xmlns="http://www.w3.org/2000/svg">
<rect width="26" height="26" rx="4" fill="#F5F9FC"/>
<g clip-path="url(#clip0_2915_10217)">
<path d="M7 6C6.73478 6 6.48043 6.10536 6.29289 6.29289C6.10536 6.48043 6 6.73478 6 7V19C6 19.2652 6.10536 19.5196 6.29289 19.7071C6.48043 19.8946 6.73478 20 7 20H19C19.2652 20 19.5196 19.8946 19.7071 19.7071C19.8946 19.5196 20 19.2652 20 19V7C20 6.73478 19.8946 6.48043 19.7071 6.29289C19.5196 6.10536 19.2652 6 19 6H14.5C14.2348 6 13.9804 6.10536 13.7929 6.29289C13.6054 6.48043 13.5 6.73478 13.5 7V11.5H15.5C15.599 11.4998 15.6959 11.5291 15.7783 11.584C15.8606 11.6389 15.9249 11.7171 15.9628 11.8085C16.0007 11.9 16.0106 12.0007 15.9912 12.0978C15.9719 12.1949 15.9241 12.2841 15.854 12.354L13.354 14.854C13.3076 14.9006 13.2524 14.9375 13.1916 14.9627C13.1309 14.9879 13.0658 15.0009 13 15.0009C12.9342 15.0009 12.8691 14.9879 12.8084 14.9627C12.7476 14.9375 12.6924 14.9006 12.646 14.854L10.146 12.354C10.0759 12.2841 10.0281 12.1949 10.0088 12.0978C9.9894 12.0007 9.9993 11.9 10.0372 11.8085C10.0751 11.7171 10.1394 11.6389 10.2217 11.584C10.3041 11.5291 10.401 11.4998 10.5 11.5H12.5V7C12.5 6.46957 12.7107 5.96086 13.0858 5.58579C13.4609 5.21071 13.9696 5 14.5 5H19C19.5304 5 20.0391 5.21071 20.4142 5.58579C20.7893 5.96086 21 6.46957 21 7V19C21 19.5304 20.7893 20.0391 20.4142 20.4142C20.0391 20.7893 19.5304 21 19 21H7C6.46957 21 5.96086 20.7893 5.58579 20.4142C5.21071 20.0391 5 19.5304 5 19V7C5 6.46957 5.21071 5.96086 5.58579 5.58579C5.96086 5.21071 6.46957 5 7 5H9.5C9.63261 5 9.75979 5.05268 9.85355 5.14645C9.94732 5.24021 10 5.36739 10 5.5C10 5.63261 9.94732 5.75979 9.85355 5.85355C9.75979 5.94732 9.63261 6 9.5 6H7Z" fill="#212529"/>
</g>
<defs>
<clipPath id="clip0_2915_10217">
<rect width="16" height="16" fill="white" transform="translate(5 5)"/>
</clipPath>
</defs>
</svg>
