<svg width="41" height="40" viewBox="0 0 41 40" fill="none" xmlns="http://www.w3.org/2000/svg">
<rect x="0.71106" width="40" height="40" rx="20" fill="#ADB5BD"/>
<g clip-path="url(#clip0_2658_163869)">
<rect width="20" height="20" transform="translate(10.7111 10)" fill="white" fill-opacity="0.01"/>
<path d="M20.7107 19.9992C21.7053 19.9992 22.6591 19.6041 23.3624 18.9008C24.0656 18.1976 24.4607 17.2437 24.4607 16.2492C24.4607 15.2546 24.0656 14.3008 23.3624 13.5975C22.6591 12.8943 21.7053 12.4992 20.7107 12.4992C19.7162 12.4992 18.7623 12.8943 18.0591 13.5975C17.3558 14.3008 16.9607 15.2546 16.9607 16.2492C16.9607 17.2437 17.3558 18.1976 18.0591 18.9008C18.7623 19.6041 19.7162 19.9992 20.7107 19.9992ZM23.2107 16.2492C23.2107 16.9122 22.9473 17.5481 22.4785 18.0169C22.0096 18.4858 21.3738 18.7492 20.7107 18.7492C20.0477 18.7492 19.4118 18.4858 18.943 18.0169C18.4741 17.5481 18.2107 16.9122 18.2107 16.2492C18.2107 15.5861 18.4741 14.9502 18.943 14.4814C19.4118 14.0126 20.0477 13.7492 20.7107 13.7492C21.3738 13.7492 22.0096 14.0126 22.4785 14.4814C22.9473 14.9502 23.2107 15.5861 23.2107 16.2492ZM28.2107 26.2492C28.2107 27.4992 26.9607 27.4992 26.9607 27.4992H14.4607C14.4607 27.4992 13.2107 27.4992 13.2107 26.2492C13.2107 24.9992 14.4607 21.2492 20.7107 21.2492C26.9607 21.2492 28.2107 24.9992 28.2107 26.2492ZM26.9607 26.2442C26.9595 25.9367 26.7682 25.0117 25.9207 24.1642C25.1057 23.3492 23.572 22.4992 20.7107 22.4992C17.8482 22.4992 16.3157 23.3492 15.5007 24.1642C14.6532 25.0117 14.4632 25.9367 14.4607 26.2442H26.9607Z" fill="white"/>
</g>
<defs>
<clipPath id="clip0_2658_163869">
<rect width="20" height="20" fill="white" transform="translate(10.7111 10)"/>
</clipPath>
</defs>
</svg>
