<svg width="72" height="72" viewBox="0 0 72 72" fill="none" xmlns="http://www.w3.org/2000/svg">
<rect width="72" height="72" rx="36" fill="#FFF494"/>
<path d="M33.2197 42.2196C33.079 42.3602 33 42.551 33 42.7499C33 42.9488 33.079 43.1396 33.2197 43.2803C33.3603 43.4209 33.5511 43.4999 33.75 43.4999H38.25C38.4489 43.4999 38.6397 43.4209 38.7803 43.2803C38.921 43.1396 39 42.9488 39 42.7499C39 42.551 38.921 42.3602 38.7803 42.2196C38.6397 42.0789 38.4489 41.9999 38.25 41.9999H33.75C33.5511 41.9999 33.3603 42.0789 33.2197 42.2196Z" fill="#212529"/>
<path fill-rule="evenodd" clip-rule="evenodd" d="M32.295 32.8289C30.3525 32.6474 28.5 34.1399 28.5 36.0929V37.8284C28.4939 38.1603 28.6059 38.4836 28.8161 38.7405C29.0263 38.9974 29.321 39.1712 29.6475 39.2309C30.915 39.4499 33.1575 39.7499 36 39.7499C38.8425 39.7499 41.085 39.4514 42.3525 39.2309C42.679 39.1712 42.9737 38.9974 43.1839 38.7405C43.3941 38.4836 43.5061 38.1603 43.5 37.8284V36.0929C43.5 34.1399 41.6475 32.6474 39.705 32.8289C37.2404 33.059 34.7597 33.059 32.295 32.8289ZM35.138 34.8643C35.1946 34.8465 35.2546 34.8425 35.313 34.8524C35.3712 34.8623 35.4263 34.8858 35.4738 34.921C35.5212 34.9562 35.5597 35.0021 35.586 35.0549L36.849 37.6049L37.98 36.4274C38.0457 36.3594 38.1346 36.3187 38.229 36.3134C39.3885 36.2474 40.392 36.1409 41.199 36.0299C41.2956 36.0203 41.3921 36.0485 41.4683 36.1086C41.5445 36.1687 41.5944 36.2559 41.6076 36.352C41.6208 36.4482 41.5962 36.5457 41.5391 36.6241C41.4819 36.7024 41.3966 36.7556 41.301 36.7724C40.344 36.9031 39.3823 36.9972 38.418 37.0544L37.02 38.5094C36.9783 38.5527 36.9269 38.5854 36.8699 38.6047C36.813 38.6239 36.7523 38.6292 36.6929 38.6201C36.6335 38.611 36.5771 38.5877 36.5286 38.5523C36.4801 38.5168 36.4408 38.4702 36.414 38.4164L35.1435 35.8514L34.0125 36.9554C33.9753 36.9919 33.9308 37.0202 33.882 37.0386C33.8332 37.0569 33.7811 37.0649 33.729 37.0619C32.547 36.9959 31.524 36.8864 30.699 36.7724C30.6035 36.7556 30.5181 36.7024 30.461 36.6241C30.4038 36.5457 30.3792 36.4482 30.3924 36.352C30.4056 36.2559 30.4556 36.1687 30.5318 36.1086C30.608 36.0485 30.7045 36.0203 30.801 36.0299C31.7327 36.1569 32.6689 36.2485 33.6075 36.3044L34.9875 34.9544C35.0298 34.9129 35.0814 34.882 35.138 34.8643Z" fill="#212529"/>
<path fill-rule="evenodd" clip-rule="evenodd" d="M37.3858 26.074C37.2595 26.3791 37.036 26.6339 36.75 26.799V28.5H39.75C41.5402 28.5 43.2571 29.2112 44.523 30.4771C45.7888 31.7429 46.5 33.4598 46.5 35.25V36C46.8978 36 47.2794 36.1581 47.5607 36.4394C47.842 36.7207 48 37.1022 48 37.5V40.5C48 40.8979 47.842 41.2794 47.5607 41.5607C47.2794 41.842 46.8978 42 46.5 42V43.5C46.5 44.2957 46.1839 45.0588 45.6213 45.6214C45.0587 46.184 44.2956 46.5 43.5 46.5H28.5C27.7044 46.5 26.9413 46.184 26.3787 45.6214C25.8161 45.0588 25.5 44.2957 25.5 43.5V42C25.1022 42 24.7206 41.842 24.4393 41.5607C24.158 41.2794 24 40.8979 24 40.5V37.5C24 37.1022 24.158 36.7207 24.4393 36.4394C24.7206 36.1581 25.1022 36 25.5 36V35.25C25.5 33.4598 26.2112 31.7429 27.477 30.4771C28.7429 29.2112 30.4598 28.5 32.25 28.5H35.25V26.799C34.964 26.6339 34.7405 26.3791 34.6142 26.074C34.4878 25.769 34.4656 25.4307 34.5511 25.1118C34.6366 24.7928 34.8249 24.511 35.0869 24.31C35.3488 24.109 35.6698 24 36 24C36.3302 24 36.6512 24.109 36.9131 24.31C37.1751 24.511 37.3634 24.7928 37.4489 25.1118C37.5344 25.4307 37.5122 25.769 37.3858 26.074ZM45 43.5V35.25C45 33.8577 44.4469 32.5223 43.4623 31.5377C42.4777 30.5532 41.1424 30 39.75 30H32.25C30.8576 30 29.5223 30.5532 28.5377 31.5377C27.5531 32.5223 27 33.8577 27 35.25V43.5C27 43.8979 27.158 44.2794 27.4393 44.5607C27.7206 44.842 28.1022 45 28.5 45H43.5C43.8978 45 44.2794 44.842 44.5607 44.5607C44.842 44.2794 45 43.8979 45 43.5Z" fill="#212529"/>
</svg>
