<svg width="72" height="72" viewBox="0 0 72 72" fill="none" xmlns="http://www.w3.org/2000/svg">
<rect width="72" height="72" rx="36" fill="#FAC3F5"/>
<g clip-path="url(#clip0_2666_235778)">
<path d="M26.25 27.75C26.25 27.1533 26.4871 26.581 26.909 26.159C27.331 25.7371 27.9033 25.5 28.5 25.5H43.5C44.0967 25.5 44.669 25.7371 45.091 26.159C45.5129 26.581 45.75 27.1533 45.75 27.75V33.0945C46.3946 33.2602 46.9659 33.6357 47.3737 34.1617C47.7816 34.6877 48.003 35.3344 48.003 36C48.003 36.6656 47.7816 37.3123 47.3737 37.8383C46.9659 38.3643 46.3946 38.7398 45.75 38.9055V44.25C45.75 44.8467 45.5129 45.419 45.091 45.841C44.669 46.2629 44.0967 46.5 43.5 46.5H28.5C27.9033 46.5 27.331 46.2629 26.909 45.841C26.4871 45.419 26.25 44.8467 26.25 44.25V38.9055C25.6054 38.7398 25.0341 38.3643 24.6263 37.8383C24.2184 37.3123 23.997 36.6656 23.997 36C23.997 35.3344 24.2184 34.6877 24.6263 34.1617C25.0341 33.6357 25.6054 33.2602 26.25 33.0945V27.75ZM27.75 33.0945C28.3946 33.2602 28.9659 33.6357 29.3737 34.1617C29.7816 34.6877 30.003 35.3344 30.003 36C30.003 36.6656 29.7816 37.3123 29.3737 37.8383C28.9659 38.3643 28.3946 38.7398 27.75 38.9055V44.25C27.75 44.4489 27.829 44.6397 27.9697 44.7803C28.1103 44.921 28.3011 45 28.5 45H43.5C43.6989 45 43.8897 44.921 44.0303 44.7803C44.171 44.6397 44.25 44.4489 44.25 44.25V38.9055C43.6054 38.7398 43.0341 38.3643 42.6263 37.8383C42.2184 37.3123 41.997 36.6656 41.997 36C41.997 35.3344 42.2184 34.6877 42.6263 34.1617C43.0341 33.6357 43.6054 33.2602 44.25 33.0945V27.75C44.25 27.5511 44.171 27.3603 44.0303 27.2197C43.8897 27.079 43.6989 27 43.5 27H28.5C28.3011 27 28.1103 27.079 27.9697 27.2197C27.829 27.3603 27.75 27.5511 27.75 27.75V33.0945ZM27 34.5C26.6022 34.5 26.2206 34.658 25.9393 34.9393C25.658 35.2206 25.5 35.6022 25.5 36C25.5 36.3978 25.658 36.7794 25.9393 37.0607C26.2206 37.342 26.6022 37.5 27 37.5C27.3978 37.5 27.7794 37.342 28.0607 37.0607C28.342 36.7794 28.5 36.3978 28.5 36C28.5 35.6022 28.342 35.2206 28.0607 34.9393C27.7794 34.658 27.3978 34.5 27 34.5ZM45 34.5C44.6022 34.5 44.2206 34.658 43.9393 34.9393C43.658 35.2206 43.5 35.6022 43.5 36C43.5 36.3978 43.658 36.7794 43.9393 37.0607C44.2206 37.342 44.6022 37.5 45 37.5C45.3978 37.5 45.7794 37.342 46.0607 37.0607C46.342 36.7794 46.5 36.3978 46.5 36C46.5 35.6022 46.342 35.2206 46.0607 34.9393C45.7794 34.658 45.3978 34.5 45 34.5Z" fill="#212529"/>
<path d="M41.151 30H30.849L30.75 32.991H31.329C31.644 31.113 32.247 30.822 34.5885 30.7485L35.103 30.732V40.2465C35.103 41.052 34.929 41.244 33.5295 41.3685V42H38.4705V41.3685C37.0635 41.244 36.8895 41.0535 36.8895 40.2465V30.732L37.4115 30.747C39.7515 30.822 40.356 31.113 40.671 32.991H41.25L41.151 30Z" fill="#212529"/>
</g>
<defs>
<clipPath id="clip0_2666_235778">
<rect width="24" height="24" fill="white" transform="translate(24 24)"/>
</clipPath>
</defs>
</svg>
