<svg width="72" height="72" viewBox="0 0 72 72" fill="none" xmlns="http://www.w3.org/2000/svg">
<rect width="72" height="72" rx="36" fill="#FFE6C1"/>
<path d="M36 44H45M27 44H28.6746C29.1638 44 29.4083 44 29.6385 43.9447C29.8426 43.8957 30.0377 43.8149 30.2166 43.7053C30.4185 43.5816 30.5914 43.4086 30.9373 43.0627L43.5001 30.5C44.3285 29.6716 44.3285 28.3284 43.5001 27.5C42.6716 26.6716 41.3285 26.6716 40.5001 27.5L27.9373 40.0627C27.5914 40.4086 27.4184 40.5816 27.2948 40.7834C27.1851 40.9624 27.1043 41.1574 27.0553 41.3615C27 41.5917 27 41.8363 27 42.3255V44Z" stroke="black" stroke-width="2" stroke-linecap="round" stroke-linejoin="round"/>
</svg>
