<svg width="31" height="32" viewBox="0 0 31 32" fill="none" xmlns="http://www.w3.org/2000/svg">
<path d="M30.7111 15.5361C30.7111 23.9999 23.826 30.8796 15.3555 30.8796C13.7362 30.8796 12.1395 30.6307 10.6107 30.1328L13.9853 28.2658C14.8913 27.7679 15.8538 27.3832 16.8617 26.9758C17.6657 26.659 18.4923 26.3309 19.3077 25.9348C24.245 23.5134 26.8496 19.6209 26.6457 14.9703C26.3966 9.2787 21.731 4.6168 16.035 4.35654C15.8651 4.34523 15.6839 4.34523 15.5141 4.34523C9.37639 4.34523 4.37112 9.33528 4.37112 15.4795C4.37112 18.2065 5.345 20.7864 7.13421 22.8118L4.79011 26.6703C1.74392 23.7962 0 19.8133 0 15.5361C0 7.08353 6.88508 0.203827 15.3442 0.203827C23.826 0.203827 30.7111 7.08353 30.7111 15.5361Z" fill="#010101"/>
<path d="M18.515 24.2941C17.7676 24.6562 17.0088 24.9617 16.2048 25.2785C15.1857 25.6859 14.1212 26.1045 13.1133 26.659L8.39117 29.2728L3.83887 31.7961L6.21694 27.8811L9.45564 22.5402L8.94606 22.031C7.19081 20.2772 6.22826 17.9349 6.22826 15.4568C6.22826 10.3197 10.4069 6.14435 15.548 6.14435C15.6952 6.14435 15.8425 6.14435 15.9897 6.15566C20.7571 6.37065 24.6526 10.2744 24.8565 15.0382C25.0603 20.2772 20.9723 23.0947 18.515 24.2941Z" fill="#2956EF"/>
<path d="M11.6978 15.5021C11.6978 16.396 10.9731 17.1202 10.0785 17.1202C9.18385 17.1202 8.45911 16.396 8.45911 15.5021C8.45911 14.6082 9.18385 13.884 10.0785 13.884C10.9731 13.8727 11.6978 14.6082 11.6978 15.5021Z" fill="white"/>
<path d="M17.0541 15.5021C17.0541 16.396 16.3294 17.1202 15.4348 17.1202C14.5402 17.1202 13.8154 16.396 13.8154 15.5021C13.8154 14.6082 14.5402 13.884 15.4348 13.884C16.3294 13.8727 17.0541 14.6082 17.0541 15.5021Z" fill="white"/>
<path d="M22.4218 15.5021C22.4218 16.396 21.697 17.1202 20.8024 17.1202C19.9078 17.1202 19.183 16.396 19.183 15.5021C19.183 14.6082 19.9078 13.884 20.8024 13.884C21.697 13.8727 22.4218 14.6082 22.4218 15.5021Z" fill="white"/>
</svg>
