<svg width="73" height="72" viewBox="0 0 73 72" fill="none" xmlns="http://www.w3.org/2000/svg">
<rect x="0.5" width="72" height="72" rx="36" fill="#BAC9FE"/>
<g clip-path="url(#clip0_2666_235777)">
<path d="M31.3175 34.071L30.665 36H29L31.793 28.5H33.719L36.5 36H34.7495L34.097 34.071H31.3175ZM33.7685 32.967L32.75 29.934H32.6765L31.658 32.967H33.7685Z" fill="#212529"/>
<path d="M24.5 27C24.5 26.2044 24.8161 25.4413 25.3787 24.8787C25.9413 24.3161 26.7044 24 27.5 24H38C38.7956 24 39.5587 24.3161 40.1213 24.8787C40.6839 25.4413 41 26.2044 41 27V31.5H45.5C46.2956 31.5 47.0587 31.8161 47.6213 32.3787C48.1839 32.9413 48.5 33.7044 48.5 34.5V45C48.5 45.7956 48.1839 46.5587 47.6213 47.1213C47.0587 47.6839 46.2956 48 45.5 48H35C34.2044 48 33.4413 47.6839 32.8787 47.1213C32.3161 46.5587 32 45.7956 32 45V40.5H27.5C26.7044 40.5 25.9413 40.1839 25.3787 39.6213C24.8161 39.0587 24.5 38.2956 24.5 37.5V27ZM27.5 25.5C27.1022 25.5 26.7206 25.658 26.4393 25.9393C26.158 26.2206 26 26.6022 26 27V37.5C26 37.8978 26.158 38.2794 26.4393 38.5607C26.7206 38.842 27.1022 39 27.5 39H38C38.3978 39 38.7794 38.842 39.0607 38.5607C39.342 38.2794 39.5 37.8978 39.5 37.5V27C39.5 26.6022 39.342 26.2206 39.0607 25.9393C38.7794 25.658 38.3978 25.5 38 25.5H27.5ZM38.207 40.4925C38.4965 40.944 38.81 41.367 39.152 41.7615C38.03 42.624 36.6425 43.263 35 43.6995C35.267 44.025 35.6765 44.652 35.8325 45C37.52 44.4615 38.9525 43.734 40.1615 42.759C41.327 43.7565 42.77 44.5065 44.5565 44.967C44.756 44.586 45.1775 43.9575 45.5 43.632C43.8125 43.2525 42.4145 42.591 41.27 41.706C42.2915 40.5855 43.103 39.2295 43.7015 37.5705H45.5V36H41V37.5705H42.1475C41.6705 38.8365 41.0375 39.8895 40.2395 40.7655C40.0191 40.5307 39.8113 40.2843 39.617 40.0275C39.1937 40.2989 38.7087 40.4589 38.207 40.4925Z" fill="#212529"/>
</g>
<defs>
<clipPath id="clip0_2666_235777">
<rect width="24" height="24" fill="white" transform="translate(24.5 24)"/>
</clipPath>
</defs>
</svg>
