<svg width="17" height="16" viewBox="0 0 17 16" fill="none" xmlns="http://www.w3.org/2000/svg">
<g clip-path="url(#clip0_2947_9265)">
<path d="M8.5 15.9992C10.6217 15.9992 12.6566 15.1564 14.1569 13.6561C15.6571 12.1558 16.5 10.1209 16.5 7.99921C16.5 5.87747 15.6571 3.84264 14.1569 2.34235C12.6566 0.842061 10.6217 -0.000793457 8.5 -0.000793457C6.37827 -0.000793457 4.34344 0.842061 2.84315 2.34235C1.34285 3.84264 0.5 5.87747 0.5 7.99921C0.5 10.1209 1.34285 12.1558 2.84315 13.6561C4.34344 15.1564 6.37827 15.9992 8.5 15.9992ZM4 4.99921H13C13.1326 4.99921 13.2598 5.05189 13.3536 5.14565C13.4473 5.23942 13.5 5.3666 13.5 5.49921C13.5 5.63181 13.4473 5.75899 13.3536 5.85276C13.2598 5.94653 13.1326 5.99921 13 5.99921H4C3.86739 5.99921 3.74021 5.94653 3.64645 5.85276C3.55268 5.75899 3.5 5.63181 3.5 5.49921C3.5 5.3666 3.55268 5.23942 3.64645 5.14565C3.74021 5.05189 3.86739 4.99921 4 4.99921ZM5.5 8.49921C5.5 8.3666 5.55268 8.23942 5.64645 8.14565C5.74021 8.05188 5.86739 7.99921 6 7.99921H11C11.1326 7.99921 11.2598 8.05188 11.3536 8.14565C11.4473 8.23942 11.5 8.3666 11.5 8.49921C11.5 8.63181 11.4473 8.75899 11.3536 8.85276C11.2598 8.94653 11.1326 8.99921 11 8.99921H6C5.86739 8.99921 5.74021 8.94653 5.64645 8.85276C5.55268 8.75899 5.5 8.63181 5.5 8.49921ZM7.5 11.4992C7.5 11.3666 7.55268 11.2394 7.64645 11.1457C7.74021 11.0519 7.86739 10.9992 8 10.9992H9C9.13261 10.9992 9.25979 11.0519 9.35355 11.1457C9.44732 11.2394 9.5 11.3666 9.5 11.4992C9.5 11.6318 9.44732 11.759 9.35355 11.8528C9.25979 11.9465 9.13261 11.9992 9 11.9992H8C7.86739 11.9992 7.74021 11.9465 7.64645 11.8528C7.55268 11.759 7.5 11.6318 7.5 11.4992Z" fill="white"/>
</g>
<defs>
<clipPath id="clip0_2947_9265">
<rect width="16" height="16" fill="white" transform="translate(0.5)"/>
</clipPath>
</defs>
</svg>
