<svg width="26" height="16" viewBox="0 0 26 16" fill="none" xmlns="http://www.w3.org/2000/svg">
<g clip-path="url(#clip0_2915_10204)">
<path d="M2.244 13.081L3.187 10.278H6.66L7.604 13.081H8.86L5.54 3.75H4.322L1 13.081H2.244V13.081ZM4.944 5.158L6.34 9.314H3.51L4.91 5.158H4.944V5.158ZM14.09 12.185H14.125V13.081H15.253V8.125C15.253 6.615 14.139 5.78 12.607 5.78C10.871 5.78 10.017 6.696 9.941 7.954H11.049C11.117 7.236 11.644 6.764 12.566 6.764C13.537 6.764 14.084 7.284 14.084 8.228V8.959H12.19C10.543 8.966 9.668 9.759 9.668 11.017C9.668 12.336 10.625 13.197 12.013 13.197C13.073 13.197 13.729 12.767 14.091 12.186L14.09 12.185ZM12.327 12.22C11.575 12.22 10.871 11.823 10.871 10.976C10.871 10.326 11.295 9.861 12.279 9.861H14.084V10.695C14.084 11.591 13.332 12.22 12.327 12.22Z" fill="#6C757D"/>
<path fill-rule="evenodd" clip-rule="evenodd" d="M18.823 6.32296C18.8462 6.29968 18.8738 6.28121 18.9041 6.2686C18.9345 6.256 18.9671 6.24951 19 6.24951C19.0328 6.24951 19.0654 6.256 19.0958 6.2686C19.1261 6.28121 19.1537 6.29968 19.177 6.32296L22 9.14646L24.823 6.32296C24.8462 6.29971 24.8738 6.28128 24.9042 6.2687C24.9345 6.25612 24.9671 6.24964 25 6.24964C25.0328 6.24964 25.0654 6.25612 25.0958 6.2687C25.1261 6.28128 25.1537 6.29971 25.177 6.32296C25.2002 6.3462 25.2186 6.3738 25.2312 6.40417C25.2438 6.43454 25.2503 6.46709 25.2503 6.49996C25.2503 6.53283 25.2438 6.56538 25.2312 6.59575C25.2186 6.62612 25.2002 6.65371 25.177 6.67696L22.177 9.67696C22.1537 9.70024 22.1261 9.71871 22.0958 9.73131C22.0654 9.74392 22.0328 9.75041 22 9.75041C21.9671 9.75041 21.9345 9.74392 21.9041 9.73131C21.8738 9.71871 21.8462 9.70024 21.823 9.67696L18.823 6.67696C18.7997 6.65374 18.7812 6.62615 18.7686 6.59578C18.756 6.5654 18.7495 6.53284 18.7495 6.49996C18.7495 6.46707 18.756 6.43451 18.7686 6.40414C18.7812 6.37377 18.7997 6.34618 18.823 6.32296V6.32296Z" fill="#6C757D"/>
</g>
<defs>
<clipPath id="clip0_2915_10204">
<rect width="26" height="16" fill="white"/>
</clipPath>
</defs>
</svg>
