<svg width="22" height="22" viewBox="0 0 22 22" fill="none" xmlns="http://www.w3.org/2000/svg">
<g clip-path="url(#clip0_2777_639)">
<rect width="22" height="22" fill="white" fill-opacity="0.01"/>
<path d="M7.59278 0.494724C7.63468 0.352176 7.72163 0.227037 7.84062 0.138049C7.9596 0.0490603 8.1042 0.00101175 8.25278 0.00109875H13.7528C13.8617 0.0011814 13.969 0.0271219 14.0659 0.0767847C14.1627 0.126447 14.2465 0.198412 14.3101 0.286755C14.3737 0.375098 14.4155 0.477292 14.4319 0.584924C14.4483 0.692557 14.4389 0.80255 14.4045 0.905849L11.957 8.2511H17.1903C17.319 8.25101 17.4452 8.28707 17.5545 8.35518C17.6637 8.42329 17.7517 8.52072 17.8083 8.63635C17.8649 8.75199 17.8879 8.8812 17.8746 9.00926C17.8614 9.13733 17.8125 9.2591 17.7334 9.36072L8.10841 21.7357C8.00981 21.8631 7.86961 21.9518 7.71227 21.9864C7.55494 22.021 7.39046 21.9992 7.24754 21.9249C7.10463 21.8505 6.99235 21.7284 6.9303 21.5797C6.86825 21.4311 6.86037 21.2653 6.90803 21.1115L9.38441 13.0636H4.81528C4.7084 13.0637 4.60297 13.0388 4.50737 12.991C4.41177 12.9432 4.32864 12.8737 4.26457 12.7882C4.2005 12.7026 4.15727 12.6033 4.1383 12.4981C4.11932 12.3929 4.12514 12.2848 4.15528 12.1822L7.59278 0.494724Z" fill="#212529"/>
</g>
<defs>
<clipPath id="clip0_2777_639">
<rect width="22" height="22" fill="white"/>
</clipPath>
</defs>
</svg>
