<svg width="16" height="16" viewBox="0 0 16 16" fill="none" xmlns="http://www.w3.org/2000/svg">
<path d="M8.20977 13C10.3158 13 11.6218 11.913 11.6218 10.177C11.6218 8.87099 10.6378 7.89399 9.29777 7.79099V7.73599C9.81094 7.65872 10.2796 7.4006 10.6192 7.0082C10.9588 6.61579 11.147 6.11493 11.1498 5.59599C11.1498 4.08599 9.98777 3.13599 8.13577 3.13599H3.84277V13H8.20977ZM5.90777 4.67399H7.60377C8.56677 4.67399 9.12077 5.12499 9.12077 5.91799C9.12077 6.75199 8.49177 7.23799 7.39077 7.23799H5.90777V4.67299V4.67399ZM5.90777 11.462V8.59799H7.63777C8.85477 8.59799 9.51777 9.08999 9.51777 10.013C9.51777 10.956 8.87477 11.462 7.68577 11.462H5.90677H5.90777Z" fill="#6C757D"/>
</svg>
