<svg width="9" height="10" viewBox="0 0 9 10" fill="none" xmlns="http://www.w3.org/2000/svg">
<path d="M5.20977 9.99999C7.31577 9.99999 8.62177 8.91299 8.62177 7.17699C8.62177 5.87099 7.63777 4.89399 6.29777 4.79099V4.73599C6.81094 4.65872 7.2796 4.4006 7.6192 4.0082C7.9588 3.61579 8.14697 3.11493 8.14977 2.59599C8.14977 1.08599 6.98777 0.135986 5.13577 0.135986H0.842773V9.99999H5.20977ZM2.90777 1.67399H4.60377C5.56677 1.67399 6.12077 2.12499 6.12077 2.91799C6.12077 3.75199 5.49177 4.23799 4.39077 4.23799H2.90777V1.67299V1.67399ZM2.90777 8.46199V5.59799H4.63777C5.85477 5.59799 6.51777 6.08999 6.51777 7.01299C6.51777 7.95599 5.87477 8.46199 4.68577 8.46199H2.90677H2.90777Z" fill="#6C757D"/>
</svg>
