<svg width="26" height="16" viewBox="0 0 26 16" fill="none" xmlns="http://www.w3.org/2000/svg">
<g clip-path="url(#clip0_2812_2790)">
<path d="M2.244 13.081L3.187 10.278H6.66L7.604 13.081H8.86L5.54 3.75H4.322L1 13.081H2.244ZM4.944 5.158L6.34 9.314H3.51L4.91 5.158H4.944ZM14.09 12.185H14.125V13.081H15.253V8.125C15.253 6.615 14.139 5.78 12.607 5.78C10.871 5.78 10.017 6.696 9.941 7.954H11.049C11.117 7.236 11.644 6.764 12.566 6.764C13.537 6.764 14.084 7.284 14.084 8.228V8.959H12.19C10.543 8.966 9.668 9.759 9.668 11.017C9.668 12.336 10.625 13.197 12.013 13.197C13.073 13.197 13.729 12.767 14.091 12.186L14.09 12.185ZM12.327 12.22C11.575 12.22 10.871 11.823 10.871 10.976C10.871 10.326 11.295 9.861 12.279 9.861H14.084V10.695C14.084 11.591 13.332 12.22 12.327 12.22Z" fill="#6C757D"/>
<path fill-rule="evenodd" clip-rule="evenodd" d="M18.823 6.32302C18.8462 6.29974 18.8738 6.28127 18.9041 6.26866C18.9345 6.25606 18.9671 6.24957 19 6.24957C19.0328 6.24957 19.0654 6.25606 19.0958 6.26866C19.1261 6.28127 19.1537 6.29974 19.177 6.32302L22 9.14652L24.823 6.32302C24.8462 6.29978 24.8738 6.28134 24.9042 6.26876C24.9345 6.25618 24.9671 6.2497 25 6.2497C25.0328 6.2497 25.0654 6.25618 25.0958 6.26876C25.1261 6.28134 25.1537 6.29978 25.177 6.32302C25.2002 6.34626 25.2186 6.37386 25.2312 6.40423C25.2438 6.4346 25.2503 6.46715 25.2503 6.50002C25.2503 6.53289 25.2438 6.56544 25.2312 6.59581C25.2186 6.62618 25.2002 6.65378 25.177 6.67702L22.177 9.67702C22.1537 9.7003 22.1261 9.71877 22.0958 9.73138C22.0654 9.74398 22.0328 9.75047 22 9.75047C21.9671 9.75047 21.9345 9.74398 21.9041 9.73138C21.8738 9.71877 21.8462 9.7003 21.823 9.67702L18.823 6.67702C18.7997 6.6538 18.7812 6.62621 18.7686 6.59584C18.756 6.56546 18.7495 6.5329 18.7495 6.50002C18.7495 6.46714 18.756 6.43458 18.7686 6.4042C18.7812 6.37383 18.7997 6.34624 18.823 6.32302Z" fill="#6C757D"/>
</g>
<defs>
<clipPath id="clip0_2812_2790">
<rect width="26" height="16" fill="white"/>
</clipPath>
</defs>
</svg>
