<svg width="16" height="16" viewBox="0 0 16 16" fill="none" xmlns="http://www.w3.org/2000/svg">
<path d="M7.40016 15.1666H4.60016C1.9935 15.1666 0.833496 14.0066 0.833496 11.4V8.59998C0.833496 5.99331 1.9935 4.83331 4.60016 4.83331H7.40016C10.0068 4.83331 11.1668 5.99331 11.1668 8.59998V11.4C11.1668 14.0066 10.0068 15.1666 7.40016 15.1666ZM4.60016 5.83331C2.5335 5.83331 1.8335 6.53331 1.8335 8.59998V11.4C1.8335 13.4666 2.5335 14.1666 4.60016 14.1666H7.40016C9.46683 14.1666 10.1668 13.4666 10.1668 11.4V8.59998C10.1668 6.53331 9.46683 5.83331 7.40016 5.83331H4.60016V5.83331Z" fill="#6C757D"/>
<path d="M11.4002 11.1666H10.6668C10.3935 11.1666 10.1668 10.94 10.1668 10.6666V8.59998C10.1668 6.53331 9.46683 5.83331 7.40016 5.83331H5.3335C5.06016 5.83331 4.8335 5.60665 4.8335 5.33331V4.59998C4.8335 1.99331 5.9935 0.833313 8.60016 0.833313H11.4002C14.0068 0.833313 15.1668 1.99331 15.1668 4.59998V7.39998C15.1668 10.0066 14.0068 11.1666 11.4002 11.1666ZM11.1668 10.1666H11.4002C13.4668 10.1666 14.1668 9.46665 14.1668 7.39998V4.59998C14.1668 2.53331 13.4668 1.83331 11.4002 1.83331H8.60016C6.5335 1.83331 5.8335 2.53331 5.8335 4.59998V4.83331H7.40016C10.0068 4.83331 11.1668 5.99331 11.1668 8.59998V10.1666Z" fill="#292D32"/>
</svg>
