<svg width="46" height="36" viewBox="0 0 46 36" fill="none" xmlns="http://www.w3.org/2000/svg">
<rect width="46" height="36" rx="4" fill="#FDDFBC"/>
<path d="M20.1601 16.87C20.0601 16.86 19.9401 16.86 19.8301 16.87C17.4501 16.79 15.5601 14.84 15.5601 12.44C15.5601 9.99 17.5401 8 20.0001 8C22.4501 8 24.4401 9.99 24.4401 12.44C24.4301 14.84 22.5401 16.79 20.1601 16.87Z" stroke="#F49424" stroke-width="1.5" stroke-linecap="round" stroke-linejoin="round"/>
<path d="M27.41 10C29.35 10 30.91 11.57 30.91 13.5C30.91 15.39 29.41 16.93 27.54 17C27.46 16.99 27.37 16.99 27.28 17" stroke="#F49424" stroke-width="1.5" stroke-linecap="round" stroke-linejoin="round"/>
<path d="M15.16 20.56C12.74 22.18 12.74 24.82 15.16 26.43C17.91 28.27 22.42 28.27 25.17 26.43C27.59 24.81 27.59 22.17 25.17 20.56C22.43 18.73 17.92 18.73 15.16 20.56Z" stroke="#F49424" stroke-width="1.5" stroke-linecap="round" stroke-linejoin="round"/>
<path d="M29.34 26C30.06 25.85 30.74 25.56 31.3 25.13C32.86 23.96 32.86 22.03 31.3 20.86C30.75 20.44 30.08 20.16 29.37 20" stroke="#F49424" stroke-width="1.5" stroke-linecap="round" stroke-linejoin="round"/>
</svg>
