<svg width="32" height="32" viewBox="0 0 32 32" fill="none" xmlns="http://www.w3.org/2000/svg">
<g clip-path="url(#clip0_2699_428357)">
<rect width="32" height="32" fill="white" fill-opacity="0.01"/>
<path d="M11.0439 0.719099C11.1048 0.511756 11.2313 0.329736 11.4044 0.200299C11.5774 0.0708611 11.7878 0.00097226 12.0039 0.0010988H20.0039C20.1622 0.00121902 20.3183 0.0389506 20.4593 0.111187C20.6002 0.183424 20.722 0.2881 20.8145 0.416599C20.9071 0.545097 20.9678 0.693743 20.9917 0.8503C21.0156 1.00686 21.0019 1.16685 20.9519 1.3171L17.3919 12.0011H25.0039C25.1911 12.001 25.3747 12.0534 25.5336 12.1525C25.6925 12.2516 25.8204 12.3933 25.9028 12.5615C25.9851 12.7297 26.0185 12.9176 25.9993 13.1039C25.98 13.2902 25.9089 13.4673 25.7939 13.6151L11.7939 31.6151C11.6505 31.8004 11.4465 31.9294 11.2177 31.9797C10.9888 32.03 10.7496 31.9983 10.5417 31.8902C10.3338 31.7821 10.1705 31.6044 10.0803 31.3882C9.99001 31.172 9.97855 30.9309 10.0479 30.7071L13.6499 19.0011H7.00388C6.84841 19.0012 6.69506 18.965 6.55601 18.8955C6.41696 18.8259 6.29604 18.7249 6.20285 18.6005C6.10966 18.4761 6.04677 18.3316 6.01917 18.1786C5.99158 18.0256 6.00004 17.8683 6.04388 17.7191L11.0439 0.719099Z" fill="#212529"/>
</g>
<defs>
<clipPath id="clip0_2699_428357">
<rect width="32" height="32" fill="white"/>
</clipPath>
</defs>
</svg>
